<svg width="86" height="65" viewBox="0 0 86 65" fill="none" xmlns="http://www.w3.org/2000/svg">
<path d="M66.9062 23.9062C66.9062 37.1093 56.2031 47.8125 43 47.8125C29.7969 47.8125 19.0938 37.1093 19.0938 23.9062C19.0938 10.7032 29.7969 0 43 0C56.2031 0 66.9062 10.7032 66.9062 23.9062ZM19.7493 23.9062C19.7493 36.7472 30.159 47.1569 43 47.1569C55.841 47.1569 66.2507 36.7472 66.2507 23.9062C66.2507 11.0653 55.841 0.655565 43 0.655565C30.159 0.655565 19.7493 11.0653 19.7493 23.9062Z" fill="#434834"/>
<path d="M19.625 27.6249C19.625 27.6249 22.6505 27.8526 26.4554 31.8749C34.4241 40.299 35.5049 44.2107 43.6071 46.7499C47.3865 47.9343 53.5491 45.0803 53.5491 45.0803" stroke="#434834" stroke-width="0.607143"/>
<path d="M19.4733 21.4017C20.4284 21.2734 21.5212 21.4403 22.6608 21.8002M65.6161 30.8883C61.8938 35.2833 59.3475 36.5445 54.3081 37.491C45.9598 38.2052 40.431 35.4658 32.7545 28.4751" stroke="#434834" stroke-width="0.607143"/>
<path d="M61.6462 19.9071C61.7112 19.7752 61.7488 19.6276 61.7488 19.4708V18.0219C61.7488 17.027 60.9394 16.2176 59.9444 16.2176H58.755V8.12543C58.755 6.65037 57.555 5.45038 56.0799 5.45038H30.0854C28.6103 5.45038 27.4103 6.65046 27.4103 8.12543V16.2176H26.1453C25.1504 16.2176 24.341 17.027 24.341 18.0219V19.4708C24.341 19.6276 24.3786 19.7755 24.4438 19.9074C23.0771 20.2775 22.0684 21.5279 22.0684 23.0101V27.3283C22.0684 28.1208 22.713 28.7655 23.5056 28.7655H26.488V30.1119C26.488 30.5897 26.8766 30.9782 27.3544 30.9782H28.1312C28.6089 30.9782 28.9976 30.5897 28.9976 30.1119V28.7655H58.0888V30.1119C58.0888 30.5897 58.4774 30.9782 58.9551 30.9782H59.732C60.2097 30.9782 60.5983 30.5897 60.5983 30.1119V28.7655H62.5852C63.3777 28.7655 64.0224 28.1208 64.0224 27.3283V23.0101C64.0227 21.5275 63.0135 20.2768 61.6462 19.9071ZM28.0763 8.12543C28.0763 7.01756 28.9775 6.11632 30.0854 6.11632H56.08C57.188 6.11632 58.0892 7.01765 58.0892 8.12543V16.1328H54.1448V15.2496C54.1448 14.7164 53.7111 14.2826 53.1778 14.2826H46.2326C45.6994 14.2826 45.2656 14.7164 45.2656 15.2496V16.1328H40.9V15.2496C40.9 14.7164 40.4662 14.2826 39.9331 14.2826H32.9878C32.4545 14.2826 32.0208 14.7164 32.0208 15.2496V16.1328H28.0763V8.12543ZM53.4789 15.2496V16.1328H45.9314V15.2496C45.9314 15.0837 46.0665 14.9486 46.2325 14.9486H53.1777C53.3437 14.9486 53.4789 15.0837 53.4789 15.2496ZM40.2339 15.2496V16.1328H32.6866V15.2496C32.6866 15.0837 32.8216 14.9486 32.9877 14.9486H39.933C40.0989 14.9486 40.2339 15.0837 40.2339 15.2496ZM25.007 18.0219C25.007 17.3942 25.5177 16.8836 26.1454 16.8836H59.9446C60.5723 16.8836 61.0831 17.3942 61.0831 18.0219V19.4708C61.0831 19.6495 60.9379 19.7948 60.7592 19.7948H25.3309C25.1522 19.7948 25.007 19.6495 25.007 19.4708V18.0219ZM28.3317 30.1119C28.3317 30.2223 28.2418 30.3122 28.1313 30.3122H27.3545C27.2439 30.3122 27.154 30.2223 27.154 30.1119V28.825H28.3317V30.1119ZM59.9326 30.1119C59.9326 30.2223 59.8427 30.3122 59.7322 30.3122H58.9553C58.8448 30.3122 58.7549 30.2223 58.7549 30.1119V28.825H59.9326V30.1119ZM63.3567 27.3282C63.3567 27.7536 63.0108 28.0995 62.5854 28.0995H23.5056C23.0802 28.0995 22.7343 27.7536 22.7343 27.3282V23.0101C22.7343 21.6048 23.8775 20.4614 25.2829 20.4614H28.7312H57.3597H60.8079C62.2133 20.4614 63.3566 21.6047 63.3566 23.0101V27.3282H63.3567Z" fill="#434834"/>
<path d="M6.11737 63.629H6.36737V63.379V58.6441V58.4036V53.8839V53.6339H6.11737H5.87683H5.62683V53.8839V63.379V63.629H5.87683H6.11737ZM13.3748 63.379V63.629H13.6248H13.8653H14.1153V63.379V53.8839V53.6339H13.8653H13.6248H13.3748V53.8839V58.1536H9.87108H9.62108V58.4036V58.6441V58.8941H9.87108H13.3748V63.379Z" fill="#434834" stroke="#434834" stroke-width="0.5"/>
<path d="M22.6438 63.6289H22.8033L22.8705 63.4842L24.2869 60.4364L24.4119 60.1864L24.412 60.1864L24.4149 60.1801L26.9355 54.7672L29.4561 60.1801L29.456 60.1802L29.4591 60.1864L29.5845 60.4371L30.305 61.9602L30.6658 62.723L30.7676 62.9382H26.9355H26.6855V63.1882V63.3789V63.6289H26.9355H31.2526H31.5311H31.9251L31.7573 63.2724L27.2883 53.7774L27.2208 53.6338H27.0621H26.9593L26.9355 53.5828L26.9117 53.6338H26.7963H26.637L26.5697 53.7781L22.1387 63.2731L21.9727 63.6289H22.3652H22.6438Z" fill="#434834" stroke="#434834" stroke-width="0.5"/>
<path d="M48.9311 53.6338H48.7719L48.7046 53.7782L44.6384 62.4983L40.5359 53.7774L40.4683 53.6338H40.3096H40.0311H39.6372L39.8049 53.9903L44.2739 63.4853L44.3415 63.6289H44.5001H44.6177L44.6404 63.6771L44.6629 63.6289H44.7786H44.9379L45.0052 63.4846L49.4362 53.9895L49.6022 53.6338H49.2097H48.9311Z" fill="#434834" stroke="#434834" stroke-width="0.5"/>
<path d="M57.7097 53.6338H57.4597V53.8838V54.137V54.387H57.7097H57.9503H63.622H63.872V54.137V53.8838V53.6338H63.622H57.7097ZM63.872 58.3908V58.1408H63.622H57.9503H57.7097H57.4597V58.3908V58.644V58.894H57.7097H57.9503H63.622H63.872V58.644V58.3908ZM63.872 63.1257V62.8757H63.622H57.9503H57.7097H57.4597V63.1257V63.3789V63.6289H57.7097H63.622H63.872V63.3789V63.1257Z" fill="#434834" stroke="#434834" stroke-width="0.5"/>
<path d="M79.535 63.5345L79.6101 63.6289H79.7306H79.9499L80.1199 63.8432V63.6289H80.1231H80.3731V63.3789V53.8838V53.6338H80.1231H79.8699H79.6199V53.8838V62.4082L72.7356 53.7285L72.6605 53.6338H72.5397H72.2942L72.1251 53.4215V53.6338H72.1219H71.8719V53.8838V63.3789V63.6289H72.1219H72.3751H72.6251V63.3789V54.8526L79.535 63.5345Z" fill="#434834" stroke="#434834" stroke-width="0.5"/>
</svg>
